Coordinates
version=1
nRows=16
nColumns=33
inDegrees=yes

Units are S.I. units (second, meters, Newtons, ...)
Angles are in degrees.

endheader
time	ground_thorax_rot_x	ground_thorax_rot_y	ground_thorax_rot_z	ground_thorax_tx	ground_thorax_ty	ground_thorax_tz	clav_prot_r	clav_elev_r	scapula_abduction_r	scapula_elevation_r	scapula_upward_rot_r	scapula_winging_r	shoulder_elv_r	plane_of_elev_r	axial_rot_r	elbow_flexion_r	pro_sup_r	wrist_flex_r	wrist_dev_r	clav_prot_l	clav_elev_l	scapula_abduction_l	scapula_elevation_l	scapula_upward_rot_l	scapula_winging_l	shoulder_elv_l	plane_of_elev_l	axial_rot_l	elbow_flexion_l	pro_sup_l	wrist_flex_l	wrist_dev_l
      7.62000000	    -40.33414375	     -9.69427481	      5.22266503	   -219.26279746	    862.96693947	     -8.67095736	     10.02667126	    -45.00000000	     34.12245331	    -45.00000000	    -45.00000000	   2059.85533591	  -2990.23190080	    150.46070055	    -91.72632632	    732.93279320	     33.81599239	     18.92304363	      7.41697482	     14.81993535	     38.15468804	    -35.77036086	    -45.00000000	    -45.00000000	    444.72163988	  -2448.72039806	     19.38145722	    -45.40671667	   1091.80924499	     42.08392696	      7.73727099	    -23.03670062
      7.63000000	    -40.33968000	     -9.29541439	      5.06973389	   -219.91742347	    864.61619768	     -8.58990588	      9.95017814	    -45.00000000	     34.04779625	    -45.00000000	    -45.00000000	   2059.80360003	  -2990.21501742	    150.32134721	    -92.39133408	    733.08621827	     35.03824970	     18.72200684	      7.28407076	     14.89510010	     38.49964572	    -36.07536440	    -45.00000000	    -45.00000000	    445.16322594	  -2448.78139950	     19.45317418	    -46.24233575	   1091.88528256	     41.80143279	      7.75870379	    -23.24047231
      7.64000000	    -40.23279036	     -9.18669805	      5.10007604	   -220.36117932	    866.11133696	     -8.49960696	     10.06195321	    -45.00000000	     34.17771996	    -45.00000000	    -45.00000000	   2059.68463380	  -2990.10892233	    150.19142198	    -92.53045171	    733.20979376	     36.13363782	     18.75779433	      7.14114467	     14.90433917	     38.20554871	    -35.90742481	    -45.00000000	    -45.00000000	    445.06600254	  -2448.62922400	     19.31661892	    -46.24091625	   1091.93899508	     41.55154404	      7.66658617	    -23.09742518
      7.65000000	    -40.17903934	     -8.94302738	      4.95348202	   -220.59822266	    867.45554410	     -8.40542391	     10.11709296	    -45.00000000	     34.24969347	    -45.00000000	    -45.00000000	   2059.63233807	  -2990.05891869	    149.99557163	    -92.89143184	    733.39362433	     37.01283145	     18.64863121	      6.96078842	     14.86984213	     38.31128844	    -36.00087581	    -45.00000000	    -45.00000000	    445.21025320	  -2448.64306945	     19.35176546	    -46.46065435	   1091.91403658	     41.42135335	      7.76225372	    -23.22535632
      7.66000000	    -40.08004885	     -8.96656233	      5.12007930	   -220.64132015	    868.66104714	     -8.31050746	     10.14339656	    -45.00000000	     34.35052669	    -45.00000000	    -45.00000000	   2059.62057774	  -2989.87816322	    150.01384136	    -93.11225040	    733.49275236	     37.84942621	     18.74189388	      6.92708137	     14.93231876	     38.10746811	    -35.86040497	    -45.00000000	    -45.00000000	    445.18003414	  -2448.53409036	     19.18852831	    -46.56247987	   1091.98064969	     41.27994957	      7.63235703	    -23.07130845
      7.67000000	    -40.02432770	     -8.75186902	      5.09979482	   -220.50507338	    869.74443365	     -8.21492172	     10.25170375	    -45.00000000	     34.38929964	    -45.00000000	    -45.00000000	   2059.55235201	  -2989.91927227	    149.79893693	    -93.38771625	    733.49873354	     38.64074673	     18.52788243	      6.71585319	     14.85426469	     38.23286474	    -36.02304311	    -45.00000000	    -45.00000000	    445.30800367	  -2448.58493883	     19.25994530	    -46.73252678	   1091.95478265	     41.19948429	      7.70939777	    -23.18698811
      7.68000000	    -39.99273035	     -8.80529146	      5.22630467	   -220.20614552	    870.71917143	     -8.11673603	     10.23200950	    -45.00000000	     34.47366366	    -45.00000000	    -45.00000000	   2059.58095227	  -2989.70359343	    149.89163445	    -93.58273422	    733.68974781	     39.43367648	     18.72055118	      6.73124983	     14.95442438	     38.07716757	    -35.86875923	    -45.00000000	    -45.00000000	    445.32318799	  -2448.41369574	     19.12486838	    -46.83980498	   1092.04392313	     41.10040128	      7.59554960	    -23.04842442
      7.69000000	    -39.95995359	     -8.55161826	      5.12259992	   -219.76401081	    871.60163321	     -8.01269990	     10.35828246	    -45.00000000	     34.56708163	    -45.00000000	    -45.00000000	   2059.45138882	  -2989.77522430	    149.58787914	    -93.87495005	    733.76127067	     40.16160527	     18.43559769	      6.43424086	     14.85122489	     38.20903453	    -36.15465673	    -45.00000000	    -45.00000000	    445.48690263	  -2448.49839110	     19.16059513	    -46.97294412	   1092.11465521	     41.05689541	      7.64268912	    -23.18481921
      7.70000000	    -39.93378060	     -8.74956098	      5.37783917	   -219.19980834	    872.41141264	     -7.89792815	     10.28427673	    -45.00000000	     34.64545063	    -45.00000000	    -45.00000000	   2059.66247793	  -2989.46647529	    149.78807026	    -93.98283367	    733.95324962	     40.96350714	     18.80387641	      6.60376657	     15.02441383	     38.06623255	    -35.89573327	    -45.00000000	    -45.00000000	    445.47342808	  -2448.29225989	     19.12727677	    -46.98046616	   1092.12576518	     41.03267108	      7.53947763	    -23.02236738
      7.71000000	    -39.93400559	     -8.29325402	      5.11302885	   -218.53873103	    873.16118077	     -7.76999174	     10.43732999	    -45.00000000	     34.65237697	    -45.00000000	    -45.00000000	   2059.40208531	  -2989.71325988	    149.30387940	    -94.35356300	    733.98683265	     41.67500525	     18.27626095	      6.09832456	     14.83590416	     38.21082762	    -36.45467950	    -45.00000000	    -45.00000000	    445.57393288	  -2448.44792772	     19.09229268	    -47.14209611	   1092.24413736	     41.08707676	      7.59862902	    -23.21305703
      7.72000000	    -39.94565551	     -8.77237083	      5.55142300	   -217.80509749	    873.87840846	     -7.61826203	     10.11571246	    -45.00000000	     34.55707944	    -45.00000000	    -45.00000000	   2060.03535704	  -2988.98413822	    149.79958803	    -94.14987258	    734.33801916	     42.53829394	     19.10955453	      6.64394392	     15.24294453	     38.11471381	    -35.93454639	    -45.00000000	    -45.00000000	    445.65833574	  -2448.23123165	     19.24050434	    -46.98644602	   1092.24646631	     41.16747691	      7.43452159	    -22.98608828
      7.73000000	    -40.00662620	     -8.50831000	      5.47049144	   -217.01486230	    874.57409944	     -7.44702616	     10.29961409	    -45.00000000	     34.89607591	    -45.00000000	    -45.00000000	   2059.55716759	  -2989.43865322	    149.43602982	    -94.52620348	    734.39062437	     43.40120396	     18.48316792	      6.05901582	     14.88957966	     38.17541422	    -36.23404884	    -45.00000000	    -45.00000000	    445.66618215	  -2448.21859160	     19.28334306	    -46.98870905	   1092.11368221	     41.39674528	      7.44468988	    -23.06058098
      7.74000000	    -40.06538348	     -8.26859384	      5.39556431	   -216.18931096	    875.25270180	     -7.26468601	     10.41500861	    -45.00000000	     34.55971410	    -45.00000000	    -45.00000000	   2059.80425635	  -2989.15384332	    149.29965379	    -94.55439671	    734.52335331	     44.27273231	     18.70582584	      6.09240673	     14.96978092	     38.10567337	    -36.40469600	    -45.00000000	    -45.00000000	    445.51431313	  -2447.91827653	     19.14690949	    -47.09928444	   1092.34033377	     41.65582739	      7.49534079	    -23.18086894
      7.75000000	    -40.12676771	     -8.42898852	      5.52039780	   -215.32388921	    875.92419305	     -7.08743100	     10.31643767	    -45.00000000	     35.04295213	    -45.00000000	    -45.00000000	   2059.63878941	  -2989.25197356	    149.27272137	    -94.66161722	    734.73209484	     45.22785271	     18.51856012	      5.88359129	     14.77978263	     38.11605701	    -36.32000488	    -45.00000000	    -45.00000000	    445.61877131	  -2447.91199217	     19.30353990	    -46.87912422	   1092.23934477	     41.99702383	      7.34404435	    -23.10132153
      7.76000000	    -40.18088637	     -8.47580622	      5.54885579	   -214.42462732	    876.60650696	     -6.92151933	     10.56759445	    -45.00000000	     35.07188303	    -45.00000000	    -45.00000000	   2059.75462912	  -2989.05074604	    149.18366657	    -94.86180152	    734.88810832	     46.16786926	     18.67305636	      5.83878333	     14.82966967	     38.10137197	    -36.22446861	    -45.00000000	    -45.00000000	    445.51941017	  -2447.68552085	     19.32323731	    -46.89199221	   1092.32412981	     42.38388206	      7.36152813	    -23.18262266
      7.77000000	    -40.23491672	     -8.46665361	      5.55239551	   -213.48153019	    877.31676948	     -6.77990938	     10.44635016	    -45.00000000	     35.24780671	    -45.00000000	    -45.00000000	   2059.76571087	  -2988.97599882	    149.07989996	    -94.98929115	    735.06873310	     47.14225132	     18.56104730	      5.71525498	     14.63930889	     38.06689473	    -36.25040450	    -45.00000000	    -45.00000000	    445.55406242	  -2447.60268547	     19.44015551	    -46.67330601	   1092.32702449	     42.78342192	      7.19133363	    -23.12716476
